<svg width="1440px" height="750px" viewBox="0 0 1440 750" version="1.1" xmlns="http://www.w3.org/2000/svg" xmlns:xlink="http://www.w3.org/1999/xlink" preserveAspectRatio="xMidYMax slice" class="absolute pin-t pin-x -z-1 w-screen h-650 sm:h-700 md:h-750"><defs><path d="M0,362.666472 C18.476675238400002,470.90193268480004 37.08935545600002,514.3680402176001 131.63505111040004,575.2685048064001 226.17783439360008,636.1647941376 353.3720097792,645.9672172287999 480.16239660800005,683.3446646144 606.945695808,720.7250243712001 824.2864436223999,692.9424985984001 964.2148456192,652.384587008 1104.1361599872,611.8195877887999 1263.5669585152,647.7086074368001 1320.2243039872,544.5809275136 1376.8845618304001,441.4432475904 1381.9195105151998,411.78010367999997 1440,390.3424491903999 1440,260.22969121279993 1440,130.10984560639997 1440,0 960,0 480,0 0,0 0,120.88 0,241.77 0,362.66 z" id="hero-blob-1" data-original="M0,362.666472 C19.3352826,484.363785 46.5406613,559.376167 150.881428,590.640215 C255.222196,621.904262 376.778449,613.571287 493.370256,698.09482 C609.962063,782.618354 810.014139,754.818715 952.810825,679.790447 C1095.60751,604.762179 1274.50038,683.498811 1326.25156,558.771764 C1378.00275,434.044717 1372.83967,385.862804 1440,357.829863 L1440,0 L0,0 L0,362.666472 Z"></path></defs> <g stroke="none" stroke-width="1" fill="none" fill-rule="evenodd"><g><mask id="hero-blob-2" fill="white"><use xlink:href="#hero-blob-1"></use></mask> <use id="hero-blob-2" fill="#0AB7C5" xlink:href="#hero-blob-1"></use> <g mask="url(#hero-blob-2)" fill="#00AEBE" fill-rule="nonzero"><g transform="translate(1.000000, -2.000000)" id="Path"><path d="M117.641768,1.53761448e-11 L118.112589,0.201314045 C206.587992,38.0317296 291.589752,38.4345846 374.275435,0.230534368 L374.774384,1.53761448e-11 L406.321915,1.53761448e-11 L397.365485,4.71244476 C300.288427,55.7897466 199.684715,55.432305 95.2736728,5.49870571 C94.7550445,5.25067658 94.2366119,5.00158931 93.7183735,4.75144257 L83.8746312,1.53761448e-11 L117.641768,1.53761448e-11 Z"></path> <path d="M38.3802837,1.49356083e-11 L38.9966206,0.394698852 C61.4106486,14.7485233 83.6575788,26.8667809 105.840344,36.7831368 C218.210718,87.016036 324.461817,77.666382 426.979791,6.13339347 C429.722604,4.21959222 432.459195,2.32224396 435.189713,0.441228337 L435.830208,1.49356083e-11 L461.168078,1.49356083e-11 L454.412568,4.57060828 C448.019005,8.89633251 441.592013,13.312971 435.129594,17.8221306 C328.472454,92.2432662 216.929061,102.054731 100.025122,49.7951932 C73.2399704,37.8214339 46.4223459,22.7668601 19.3918069,4.57399669 L12.5958676,1.49356083e-11 L38.3802837,1.49356083e-11 Z"></path> <path d="M0,17.5096202 L3.95559412,20.3423987 C35.8816998,43.2060573 67.3229001,61.6221594 98.6193482,75.7270656 C213.849136,127.659647 322.048417,117.528437 425.922864,42.5474465 C446.749267,27.5140123 467.24321,13.486383 487.485742,0.40049659 L488.10527,1.53690394e-11 L514.676602,1.53690394e-11 L507.36133,4.61446641 C483.385034,19.7386926 459.064781,36.1980079 434.258828,54.1040601 C326.209663,132.098539 212.607287,142.732937 92.7645718,88.721368 C62.3534749,75.0154781 31.8883372,57.4029076 1.06382344,35.7691477 L0,35.0225178 L0,17.5096202 Z"></path> <path d="M0,61.761336 L3.92629336,64.4887999 C33.1089819,84.7609573 61.8752057,101.369508 90.5235999,114.442548 C209.006921,168.509704 319.430906,157.682458 424.865834,78.9634831 C465.018176,48.9853751 504.057886,22.9558691 542.672838,0.342690479 L543.258027,-1.42108547e-14 L571.972098,-1.42108547e-14 L563.706766,4.67593087 C521.03057,28.8190561 477.916831,57.1377437 433.386666,90.3843749 C323.736045,172.250837 207.787035,183.619204 84.608146,127.409332 C56.9003616,114.765518 29.1495754,98.9458226 1.09303233,79.8436896 L0,79.0995049 L0,61.761336 Z"></path> <path d="M0,106.073966 L3.89609934,108.696785 C30.1903348,126.397747 56.1484059,141.174167 82.020494,153.139192 C203.986764,209.54475 316.759901,198.034126 423.81016,115.381325 C485.175716,68.0013067 544.218421,30.3715444 603.922368,0.267711455 L604.453311,1.53903557e-11 L637.004412,1.53903557e-11 L627.088237,4.75429267 C562.409568,35.7643654 498.878904,75.4232814 432.514463,126.662912 C321.208,212.6019 202.784343,224.691365 76.0394084,166.075826 C51.1658821,154.572604 26.2655171,140.572257 1.12310704,123.981943 L0,123.240856 L0,106.073966 Z"></path> <path d="M676.828169,0.182230226 L677.278941,1.53761448e-11 L716.922449,1.53761448e-11 L704.085825,4.83928834 C682.345168,13.035315 661.875187,21.5765679 641.520391,30.9722267 C570.743622,63.6423838 502.59631,106.294283 431.641219,162.939457 C319.894029,252.150314 200.275495,265.656522 71.3789656,206.723553 C67.8007534,205.087553 66.2268282,200.859721 67.8625613,197.280557 C69.498426,193.701104 73.7253979,192.124966 77.3038983,193.761097 C201.35625,250.479253 315.257121,237.619213 422.755009,151.800691 C494.599821,94.4452303 563.723277,51.1877241 635.55266,18.0316865 C649.170242,11.7458875 662.823949,5.84360443 676.828169,0.182230226 Z"></path> <path d="M769.990374,0.118362779 L770.361226,1.53761448e-11 L817.516182,1.53761448e-11 L802.074263,4.88363553 C775.234116,13.3720554 755.104091,19.8091258 745.559973,23.0082056 C711.580163,34.3978512 682.723145,45.4778514 654.108521,58.2195509 C577.560962,92.3051297 505.458694,137.568798 430.767027,199.214673 C328.606798,283.531134 219.054348,303.45776 101.171578,261.477381 C97.4650458,260.157412 95.5310979,256.081684 96.8510743,252.374322 C98.1710959,248.666833 102.245754,246.730664 105.952414,248.050679 C219.110436,288.348482 323.408433,269.346209 421.700657,188.222149 C497.380773,125.760469 570.580716,79.8140216 648.316327,45.1994198 C677.362557,32.2655315 706.632638,21.0261115 741.035414,9.49469233 C746.839753,7.54914408 756.765978,4.33912199 769.990374,0.118362779 Z"></path> <path d="M102.12653,296.772795 C103.33826,293.029445 107.35218,290.973273 111.095802,292.181132 C222.424432,328.100701 324.69416,306.508632 420.647684,224.644817 C498.490057,158.232423 574.398188,110.222475 656.590524,74.4830596 C686.621722,61.4246951 716.790556,50.2037864 753.911894,38.1664806 C759.665176,36.3008683 766.62186,34.1192063 795.937753,24.9594569 L796.054852,24.9228695 C820.703227,17.2214407 832.267822,13.5831386 838.075563,11.6725952 C841.813849,10.44283 845.840115,12.4776209 847.068056,16.2168125 C848.295686,19.9550544 846.261666,23.9818245 842.524329,25.2112772 C836.645718,27.1451343 825.004098,30.8080741 800.469562,38.4740613 L800.343287,38.5135165 C770.658405,47.788702 763.996834,49.8776598 758.303195,51.7239315 C721.610922,63.622105 691.856125,74.6879653 662.268438,87.5534794 C581.377075,122.727198 506.667283,169.98603 429.892311,235.487755 C330.188078,320.551529 222.769595,343.188019 106.719785,305.745188 C102.976268,304.537363 100.920777,300.523086 102.12653,296.772795 Z"></path> <path d="M794.25906,58.5089299 L794.237994,58.5151848 L794.252364,58.5108175 L794.543946,58.4220288 C795.107434,58.2503672 795.107434,58.2503672 796.037532,57.9669511 C797.604794,57.4893598 799.559515,56.8935735 801.483944,56.3068906 C806.83992,54.6740637 810.990007,53.4079169 812.808295,52.8514604 C827.990041,48.2053425 838.273381,44.9681582 848.021394,41.7573866 C848.595778,41.5681979 849.165931,41.3798364 849.732047,41.192237 C853.467649,39.9543345 857.498336,41.9803512 858.734413,45.7168606 C859.970176,49.4524194 857.944921,53.4836057 854.21027,54.7211932 C853.635996,54.9114961 853.057702,55.1025471 852.475192,55.2944125 C842.619958,58.5405001 832.252629,61.8042338 816.974196,66.4799414 C815.150746,67.0379774 810.996847,68.3052884 805.636438,69.9394674 C803.710881,70.5264942 801.755235,71.1225628 800.187932,71.6001666 C799.257727,71.8836151 799.257727,71.8836151 798.69421,72.0552852 L798.401057,72.1445514 L798.37798,72.1515576 C798.376153,72.15213 798.376153,72.15213 796.637866,67.4745089 L796.907219,67.3728202 L796.928281,67.3663164 L797.011239,67.3409948 L798.470091,72.123437 C790.625269,74.5164459 784.965024,76.2550088 779.455117,77.9651092 C746.75929,88.1128566 722.465548,96.394923 698.150855,105.756229 C630.096001,131.957767 569.753759,164.343317 508.944113,207.921485 C505.745118,210.213989 501.294276,209.478343 499.003593,206.278266 C496.713518,203.079041 497.449742,198.628185 500.647887,196.336291 C562.452215,152.045301 623.859391,119.088565 693.03522,92.4554443 C717.668948,82.9713073 742.241334,74.5935257 775.235315,64.3532407 C780.769475,62.635613 786.449757,60.8908908 794.316528,58.4911864 L794.319625,58.5013405 L794.25906,58.5089299 Z"></path> <path d="M119.142789,351.716235 C115.343689,350.691887 113.094678,346.781941 114.11763,342.98103 C115.142145,339.181576 119.051241,336.930424 122.850178,337.95375 C228.230222,366.340145 325.059941,342.659939 415.690586,264.475004 C417.015166,263.332132 418.315751,262.197805 419.595026,261.069603 C422.546789,258.466421 427.049126,258.749557 429.650613,261.702373 C432.251454,264.654456 431.967272,269.156827 429.016241,271.759364 C427.698117,272.921827 426.358741,274.089988 424.994934,275.266706 C330.808706,356.518959 229.116068,381.339267 119.142789,351.716235 Z"></path> <path d="M421.728762,271.480927 C423.078842,270.316052 424.404607,269.159764 425.709072,268.009346 C426.589951,267.232492 426.674794,265.888298 425.898942,265.007667 C425.123734,264.127768 423.782342,264.043413 422.902195,264.819621 C421.609261,265.95987 420.295063,267.106068 418.956758,268.260783 C327.091984,347.510372 228.559361,371.607032 121.549676,342.781658 C120.417387,342.476652 119.251118,343.148277 118.945515,344.281617 C118.64016,345.4162 119.311166,346.582902 120.44356,346.8884 C228.787968,376.072576 328.777352,351.667931 421.728762,271.480927 Z"></path> <path d="M555.417394,201.660975 C553.362714,198.305662 554.416153,193.919044 557.770397,191.862488 C607.547729,161.342978 657.759385,137.643666 715.639828,116.954005 C736.21154,109.600541 756.774659,102.909135 785.218521,94.2653024 C787.945086,93.4367241 793.219027,91.8453349 800.332288,89.7034293 L800.381747,89.6885364 C806.592139,87.8185113 818.163697,84.3384537 817.559362,84.5208208 C830.495766,80.6170641 839.624397,77.8003243 848.228296,75.0518862 C851.977032,73.8543862 855.985607,75.9238105 857.181293,79.673444 C858.376678,83.4221318 856.308055,87.4312357 852.560265,88.6284336 C843.875439,91.4027228 834.68156,94.2396555 821.672004,98.1654871 C822.264734,97.9866215 810.700164,101.46458 804.5046,103.330132 L804.455316,103.344972 C797.344663,105.486083 792.074414,107.076348 789.357713,107.901928 C761.131177,116.479718 740.767998,123.105642 720.432046,130.374832 C663.464764,150.738079 614.132751,174.020407 565.21435,204.013288 C561.859194,206.070404 557.472633,205.017201 555.417394,201.660975 Z"></path> <path d="M158.942485,401.653698 C155.042267,401.133254 152.303504,397.548468 152.824669,393.647584 C153.345794,389.747007 156.92916,387.006335 160.82907,387.526739 C236.448591,397.617401 307.402153,379.680958 374.654609,332.747662 C377.882024,330.495355 382.323309,331.286651 384.573784,334.515147 C386.823657,337.742779 386.031842,342.184082 382.80529,344.435787 C312.643295,393.399555 238.113332,412.218249 158.942485,401.653698 Z"></path> <path d="M827.059346,114.800687 C830.829921,113.673911 834.798854,115.818384 835.92384,119.589838 C837.048546,123.360357 834.90494,127.329874 831.135302,128.45637 C827.587527,129.516566 823.882239,130.618275 818.658685,132.166436 L817.237871,127.372555 L817.254326,127.367677 C817.256202,127.36712 817.256202,127.36712 817.243496,127.37093 L818.672187,132.162422 L818.634962,132.173449 L818.384331,132.247682 L817.307181,132.566762 C815.703445,133.041863 814.882577,133.285055 813.599988,133.665073 C810.004575,134.730355 807.239231,135.549959 805.973408,135.925604 C795.149958,139.137569 787.491717,141.436343 779.982054,143.730103 C759.289885,150.050343 742.102127,155.638827 725.551102,161.450152 C682.339417,176.622455 644.284291,193.145808 607.161861,213.034984 C603.692848,214.893586 599.374963,213.587057 597.51826,210.117001 C595.662064,206.647892 596.968556,202.32988 600.436622,200.471786 C638.222899,180.226938 676.94159,163.414027 720.834524,148.002527 C737.580584,142.122722 754.947372,136.475804 775.82353,130.099367 C783.3731,127.793417 791.063949,125.484843 801.923468,122.262174 C803.191387,121.885906 805.958275,121.065845 809.555374,120.000063 C810.838415,119.619912 811.659406,119.376683 813.263342,118.901523 L814.340468,118.58245 L814.591175,118.508194 L814.633858,118.495557 C819.837795,116.953204 823.528174,115.855922 827.059346,114.800687 Z"></path> <path d="M238.411911,442.331681 C234.517569,442.896949 230.903554,440.196918 230.339817,436.301825 C229.776195,432.40753 232.474956,428.792462 236.368501,428.22731 C254.082442,425.65611 271.524257,421.386846 288.710244,415.405044 C292.42693,414.111405 296.487477,416.076891 297.779276,419.794498 C299.070743,423.511149 297.105962,427.572154 293.390233,428.865461 C275.348602,435.14508 257.023985,439.630116 238.411911,442.331681 Z"></path> <path d="M661.277298,211.786124 C659.737769,208.165258 661.423871,203.980859 665.043756,202.439442 C688.096896,192.622973 711.978932,183.674525 738.498815,174.868989 C742.233686,173.628881 746.26557,175.652516 747.503852,179.388295 C748.74182,183.123123 746.718944,187.155503 742.985025,188.395296 C716.829002,197.080018 693.306529,205.893243 670.622201,215.552665 C667.001347,217.094494 662.81724,215.407957 661.277298,211.786124 Z"></path></g></g> <g mask="url(#hero-blob-2)" fill="#00AEBE" fill-rule="nonzero"><g transform="translate(1067.000000, 302.000000)" id="Path"><path d="M340.352056,447.404753 L340.105085,447.354444 C296.722859,438.517288 255.689963,428.631596 216.678118,417.646764 C212.404585,416.443436 209.917578,412.003673 211.123687,407.730981 C212.329449,403.459519 216.769728,400.972391 221.042032,402.175372 C263.724894,414.193877 308.879164,424.890218 356.94533,434.33015 C361.599357,435.244145 366.205489,436.211963 370.763806,437.233561 L372.717075,437.671323 L372.717075,447.404753 L340.352056,447.404753 Z"></path> <path d="M372.717075,418.278978 L369.752909,417.718893 C304.900215,405.464859 245.265526,390.589765 189.543224,372.877534 C185.312157,371.532621 182.974427,367.012476 184.322118,362.782263 C185.669422,358.553268 190.189985,356.215236 194.419834,357.559762 C248.929535,374.886548 307.262773,389.475621 370.684066,401.534748 L372.717075,401.921311 L372.717075,418.278978 Z"></path> <path d="M372.717075,383.290517 L369.74345,382.716774 C303.036078,369.845996 241.812428,353.707743 184.335601,333.993276 C129.490233,315.181396 80.0532947,294.026829 24.2229646,265.794763 C20.2612454,263.791416 18.6759094,258.955762 20.6818922,254.994897 C22.687331,251.035107 27.5230922,249.448554 31.4837366,251.451358 C86.6641173,279.354759 135.435474,300.225801 189.558035,318.789759 C245.719241,338.05297 305.536357,353.866248 370.693961,366.527838 L372.717075,366.920975 L372.717075,383.290517 Z"></path> <path d="M372.717075,348.613134 L369.725542,348.013251 C301.734242,334.379148 239.314115,316.784151 180.189963,294.785573 C122.578099,273.349679 77.4851625,252.306886 4.25060807,213.183558 C0.334930423,211.091727 -1.14132309,206.221659 0.953108212,202.306826 C3.0469813,198.393036 7.91713484,196.915437 11.8317683,199.006711 C84.4284822,237.789292 128.941514,258.564993 185.802588,279.721537 C243.498618,301.188748 304.399368,318.410096 370.71242,331.815011 L372.717075,332.220243 L372.717075,348.613134 Z"></path> <path d="M372.717075,314.088576 L369.698381,313.448333 C306.110184,299.961746 247.158274,282.464567 190.668224,260.509266 C156.584456,247.262343 123.639643,232.527903 88.2189059,214.785818 C74.6266342,207.977511 60.7476899,200.774403 44.4096928,192.061749 C38.4059768,188.860114 32.2402753,185.5474 23.9252933,181.057418 C23.9967253,181.09599 16.9437841,177.28435 13.5361311,175.443201 L13.529507,175.439622 C9.07293828,173.031745 5.83532687,171.283327 4.22292811,170.41413 C0.315161848,168.30757 -1.14273359,163.431974 0.966420471,159.525051 C3.07501414,155.619165 7.95069257,154.159903 11.85742,156.265903 C13.473597,157.137136 16.7125508,158.886278 21.1697645,161.294501 L21.1764056,161.298089 C24.5909297,163.14295 31.6455722,166.95551 31.569828,166.914609 C39.8603821,171.391401 46.0035876,174.692035 51.9804366,177.879342 C68.1995235,186.528584 81.9613552,193.671016 95.4249169,200.414852 C130.402843,217.935135 162.895099,232.467788 196.498502,245.528014 C251.500865,266.905113 308.880642,283.996188 370.740268,297.235169 L372.717075,297.658238 L372.717075,314.088576 Z"></path> <path d="M372.717075,279.547954 L369.661682,278.85178 C311.295331,265.552958 256.538873,248.383533 203.447857,226.918324 C168.165505,212.653329 134.154647,196.786563 95.6220102,176.74032 C87.8068032,172.674531 73.5472159,165.040822 54.4692264,154.736969 L53.8816601,154.419608 C37.8184937,145.74285 6.18825805,128.572314 6.91713157,128.961535 C3.00110106,126.870363 1.52402621,122.000545 3.61779773,118.085359 C5.71101113,114.171217 10.5809157,112.692798 14.4959019,114.783411 C13.8427279,114.434615 45.4479641,131.591414 61.3973973,140.207121 L61.9796317,140.521616 C81.0523996,150.823128 95.2916539,158.446497 103.047667,162.48149 C141.133234,182.295149 174.691607,197.951818 209.480232,212.017194 C261.031637,232.859925 314.174263,249.589382 370.777797,262.616829 L372.717075,263.063159 L372.717075,279.547954 Z"></path> <path d="M372.717075,244.810212 L369.615504,244.041293 C318.350985,231.332176 269.564592,215.243192 221.781571,195.435209 C185.573046,180.42532 150.830519,163.76892 109.600862,141.801062 C103.215312,138.398733 95.5066594,134.195198 63.3289067,116.604507 L63.2447896,116.558523 C36.0168981,101.673822 23.2650737,94.735132 16.7772645,91.3135742 C12.8504769,89.2426547 11.3482583,84.3805344 13.4217866,80.4545942 C15.4947598,76.5297048 20.3569704,75.0261714 24.2827064,77.0965363 C30.8436474,80.5566625 43.6827246,87.5423135 70.7839941,102.357634 L70.8746972,102.407218 C103.454792,120.217674 110.84255,124.246427 117.16654,127.615956 C157.946244,149.344071 192.239271,165.78628 227.944275,180.587439 C274.160037,199.74573 321.31869,215.366684 370.824933,227.776201 L372.717075,228.250496 L372.717075,244.810212 Z"></path> <path d="M93.5654373,90.1233666 L93.5843651,90.1340669 L93.5678638,90.1248777 L93.2486759,89.9473681 C92.6321101,89.604578 92.6321101,89.604578 91.6143842,89.0388484 C89.899453,88.0855857 87.7604533,86.8967642 85.6544889,85.7264722 C79.7931399,82.4692994 75.2507242,79.9463048 73.2588743,78.84222 C56.6269983,69.6231507 45.2828291,63.453083 34.406032,57.7220155 C33.7650836,57.3842949 33.1283653,57.0495312 32.49566,56.7176118 C28.5643705,54.6552436 27.0515674,49.7964066 29.1165479,45.8659654 C31.1809747,41.9365781 36.0399039,40.4224726 39.9701389,42.4842875 C40.6114265,42.8207092 41.2567033,43.1599727 41.9061896,43.502192 C52.89546,49.2925225 64.3265811,55.5097404 81.0587237,64.7843876 C83.0557863,65.8913619 87.6022476,68.4166019 93.4680849,71.6762679 C95.5752478,72.8472256 97.7152254,74.0365906 99.4301678,74.9898596 C100.447981,75.5556381 100.447981,75.5556381 101.064509,75.8984076 L101.38503,76.0766591 L101.409443,76.0902618 C101.411261,76.091256 116.102425,84.2363812 122.158961,87.5622574 C158.102801,107.300397 185.451603,121.350323 213.74848,134.520916 C265.775783,158.736677 317.033996,177.7365 370.879243,192.526563 L372.717075,193.031374 L372.717075,209.68682 L369.562276,208.830626 C313.760343,193.686318 260.735457,174.122968 206.958402,149.092797 C178.312292,135.759656 150.668317,121.559009 114.414808,101.650818 C108.333199,98.3111738 102.106594,94.8680921 93.4972224,90.0857133 L93.5038767,90.0737341 L93.5654373,90.1233666 Z"></path> <path d="M372.717075,174.015517 L369.500579,173.053312 C315.272637,156.831174 263.659941,136.186614 209.258408,109.244877 C185.822716,97.6386192 162.963044,85.4888117 131.866506,68.1722226 C128.880061,66.5091743 123.107722,63.2798703 115.326449,58.9207704 L115.291678,58.9012912 C108.521454,55.1085729 95.9178279,48.0423445 96.575017,48.4099883 C82.4507479,40.5086086 72.4297868,34.984189 62.903667,29.85489 C58.994881,27.7502206 57.5346252,22.8753315 59.6418889,18.9673884 C61.7485925,15.0604841 66.6235648,13.5988643 70.5313114,15.7029739 C80.1416689,20.8776304 90.2298739,26.4390427 104.429711,34.3826967 C103.784685,34.0218568 116.380388,41.0836411 123.1348,44.867512 L123.16945,44.8869229 C130.948578,49.2448334 136.71725,52.4720999 139.693882,54.1296836 C170.565739,71.3211558 193.216306,83.3603653 216.399214,94.8414354 C268.945867,120.864564 318.762377,140.88948 370.941997,156.699202 L372.717075,157.237027 L372.717075,174.015517 Z"></path> <path d="M114.743944,15.0410999 C110.875452,12.8633198 109.507149,7.96182238 111.68749,4.0941617 C113.867261,0.227512197 118.768829,-1.14226178 122.63631,1.03494869 C126.499943,3.2099935 130.530405,5.48627101 136.208223,8.69948606 L136.506325,8.86827673 L137.67708,9.53105482 C138.890998,10.2182491 140.312422,11.0228711 141.70653,11.8119855 C145.614611,14.0240965 148.620635,15.7252669 149.997113,16.5036163 C161.767031,23.1590854 170.117784,27.8467003 178.340831,32.4105654 C201.000724,44.987011 220.115751,55.1524265 238.893594,64.5839871 C284.265995,87.3732158 326.900968,105.364707 371.012013,120.158758 L372.717075,120.730605 L372.717075,137.663792 L369.431533,136.576342 C323.311917,121.311644 278.910324,102.673564 231.671797,78.9470349 C212.685837,69.4109432 193.383423,59.1461616 170.533374,46.4641785 C162.269232,41.8775051 153.885105,37.1711732 142.078086,30.494725 C140.699504,29.7151859 137.691857,28.0130971 133.782087,25.80003 C132.387501,25.0106454 130.965673,24.2057945 129.751835,23.5186456 L128.581133,22.8558974 L128.308678,22.7016438 L128.262492,22.675488 L128.259307,22.6736814 C122.60517,19.4738809 118.590267,17.2063991 114.743944,15.0410999 Z"></path> <path d="M335.458819,77.4670962 C333.725387,81.5531695 329.007729,83.4624986 324.920788,81.7317872 C297.305375,70.0373908 269.746997,56.9071337 240.116808,41.3853374 C236.184301,39.3252904 234.668628,34.4673479 236.731288,30.535689 C238.793395,26.6050849 243.65143,25.0881131 247.582882,27.1476072 C276.829578,42.4685104 303.996785,55.4130097 331.196144,66.9312185 C335.284238,68.6624179 337.19274,73.3798711 335.458819,77.4670962 Z"></path></g></g></g></g></svg>