<svg width="1440" height="750" xmlns="http://www.w3.org/2000/svg" xmlns:xlink="http://www.w3.org/1999/xlink" class="absolute pin-t pin-x -z-1 w-screen h-650 sm:h-700 md:h-750" preserveAspectRatio="xMidYMax slice">
 <defs>
  <path id="hero-blob-1" d="m0,362.66647c18.47668,108.23546 37.08936,151.70157 131.63505,212.60203c94.54278,60.89629 221.73696,70.69872 348.52735,108.07616c126.7833,37.38036 344.12404,9.59784 484.05245,-30.96007c139.92131,-40.565 299.35211,-4.67598 356.00945,-107.80366c56.66026,-103.13768 61.69521,-132.80083 119.7757,-154.23848c0,-130.11276 0,-260.2326 0,-390.34245c-480,0 -960,0 -1440,0c0,120.88 0,241.77 0,362.66l0,0.00647z"/>
 </defs>
 <g>
  <title>background</title>
  <rect fill="none" id="canvas_background" height="402" width="582" y="-1" x="-1"/>
 </g>
 <g>
  <title>Layer 1</title>
  <g id="svg_1" fill-rule="evenodd" fill="none">
   <g id="svg_2">
    <mask fill="#FFAAB8" id="hero-blob-2">
     <use fill="#FFAAB8" id="svg_3" xlink:href="#hero-blob-1"/>
    </mask>
    <use xlink:href="#hero-blob-1" fill="#FFAAB8" id="hero-blob-2"/>
    <g id="svg_4" fill-rule="nonzero" fill="#00AEBE" mask="url(#hero-blob-2)">
     <g id="Path">
      <path fill="#FFAAB8" id="svg_5" d="m117.64177,0l0.47082,0.20131c88.4754,37.83042 173.47716,38.23327 256.16285,0.02922l0.49894,-0.23053l31.54753,0l-8.95643,4.71244c-97.07705,51.07731 -197.68076,50.71986 -302.09181,0.78627c-0.51863,-0.24803 -1.03706,-0.49712 -1.5553,-0.74727l-9.84374,-4.75144l33.76714,0z"/>
      <path fill="#FFAAB8" id="svg_6" d="m38.38028,0l0.61634,0.3947c22.41403,14.35382 44.66096,26.47208 66.84372,36.38844c112.37038,50.2329 218.62148,40.88324 321.13945,-30.64975c2.74281,-1.9138 5.47941,-3.81115 8.20992,-5.69216l0.6405,-0.44123l25.33787,0l-6.75551,4.57061c-6.39357,4.32572 -12.82056,8.74236 -19.28298,13.25152c-106.65714,74.42114 -218.20053,84.2326 -335.10447,31.97306c-26.78515,-11.97376 -53.60277,-27.02833 -80.63331,-45.22119l-6.79594,-4.574l25.78441,0z"/>
      <path fill="#FFAAB8" id="svg_7" d="m0,17.50962l3.95559,2.83278c31.92611,22.86366 63.36731,41.27976 94.66376,55.38467c115.22979,51.93258 223.42907,41.80137 327.30351,-33.17962c20.82641,-15.03344 41.32035,-29.06107 61.56288,-42.14695l0.61953,-0.4005l26.57133,0l-7.31527,4.61447c-23.9763,15.12422 -48.29655,31.58354 -73.1025,49.48959c-108.04917,77.99448 -221.65154,88.62888 -341.49426,34.61731c-30.4111,-13.70589 -60.87623,-31.31846 -91.70075,-52.95222l-1.06382,-0.74663l0,-17.5129z"/>
      <path fill="#FFAAB8" id="svg_8" d="m0,61.76134l3.92629,2.72746c29.18269,20.27216 57.94892,36.88071 86.59731,49.95375c118.48332,54.06715 228.90731,43.23991 334.34223,-35.47907c40.15235,-29.9781 79.19206,-56.00761 117.80701,-78.62079l0.58519,-0.34269l28.71407,0l-8.26533,4.67593c-42.6762,24.14313 -85.78994,52.46181 -130.3201,85.70844c-109.65063,81.86647 -225.59963,93.23483 -348.77852,37.02496c-27.70779,-12.64381 -55.45857,-28.46351 -83.51512,-47.56564l-1.09303,-0.74419l0,-17.33816z"/>
      <path fill="#FFAAB8" id="svg_9" d="m0,106.07397l3.8961,2.62282c26.29423,17.70096 52.25231,32.47738 78.12439,44.4424c121.96627,56.40556 234.73941,44.89494 341.78967,-37.75786c61.36556,-47.38002 120.40826,-85.00979 180.11221,-115.11362l0.53094,-0.26771l32.5511,0l-9.91617,4.75429c-64.67867,31.01008 -128.20934,70.66899 -194.57378,121.90862c-111.30646,85.93899 -229.73012,98.02845 -356.47505,39.41292c-24.87353,-11.50323 -49.77389,-25.50357 -74.9163,-42.09389l-1.12311,-0.74108l0,-17.16689z"/>
      <path fill="#FFAAB8" id="svg_10" d="m676.82817,0.18223l0.45077,-0.18223l39.64351,0l-12.83663,4.83929c-21.74065,8.19603 -42.21063,16.73728 -62.56543,26.13294c-70.77677,32.67015 -138.92408,75.32205 -209.87917,131.96723c-111.74719,89.21085 -231.36572,102.71706 -360.26225,43.78409c-3.57822,-1.636 -5.15214,-5.86383 -3.51641,-9.44299c1.63587,-3.57946 5.86284,-5.15559 9.44134,-3.51946c124.05235,56.71815 237.95322,43.85811 345.45111,-41.96041c71.84481,-57.35546 140.96827,-100.61297 212.79765,-133.769c13.61758,-6.2858 27.27129,-12.18809 41.27551,-17.84946z"/>
      <path fill="#FFAAB8" id="svg_11" d="m769.99037,0.11836l0.37086,-0.11836l47.15495,0l-15.44192,4.88364c-26.84014,8.48842 -46.97017,14.92549 -56.51429,18.12457c-33.97981,11.38964 -62.83682,22.46964 -91.45145,35.21134c-76.54756,34.08558 -148.64983,79.34925 -223.34149,140.99512c-102.16023,84.31646 -211.71268,104.24309 -329.59545,62.26271c-3.70653,-1.31997 -5.64048,-5.3957 -4.32051,-9.10306c1.32003,-3.70749 5.39468,-5.64366 9.10134,-4.32364c113.15803,40.2978 217.45602,21.29553 315.74825,-59.82853c75.68011,-62.46168 148.88006,-108.40813 226.61567,-143.02273c29.04623,-12.93389 58.31631,-24.17331 92.71908,-35.70473c5.80434,-1.94555 15.73057,-5.15557 28.95496,-9.37633z"/>
      <path fill="#FFAAB8" id="svg_12" d="m102.12653,296.77279c1.21173,-3.74334 5.22565,-5.79952 8.96927,-4.59166c111.32863,35.91957 213.59836,14.3275 309.55188,-67.53631c77.84238,-66.4124 153.75051,-114.42234 235.94284,-150.16176c30.0312,-13.05836 60.20004,-24.27927 97.32137,-36.31658c5.75329,-1.86561 12.70997,-4.04727 42.02586,-13.20702l0.1171,-0.03659c24.64838,-7.70143 36.21297,-11.33973 42.02071,-13.25027c3.73829,-1.22977 7.76455,0.80502 8.9925,4.54421c1.22763,3.73824 -0.80639,7.76501 -4.54373,8.99447c-5.87861,1.93385 -17.52023,5.59679 -42.05477,13.26278l-0.12627,0.03946c-29.68488,9.27518 -36.34646,11.36414 -42.0401,13.21041c-36.69227,11.89817 -66.44706,22.96404 -96.03475,35.82955c-80.89137,35.17372 -155.60116,82.43255 -232.37613,147.93427c-99.70423,85.06378 -207.12271,107.70027 -323.17252,70.25744c-3.74352,-1.20783 -5.79901,-5.2221 -4.59326,-8.9724z"/>
      <path fill="#FFAAB8" id="svg_13" d="m794.25906,58.50893l-0.02107,0.00625l0.01437,-0.00436l0.29159,-0.08879c0.56348,-0.17166 0.56348,-0.17166 1.49358,-0.45508c1.56726,-0.47759 3.52199,-1.07338 5.44641,-1.66006c5.35598,-1.63283 9.50607,-2.89897 11.32436,-3.45543c15.18174,-4.64612 25.46508,-7.8833 35.21309,-11.09407c0.57439,-0.18919 1.14454,-0.37755 1.71066,-0.56515c3.7356,-1.23791 7.76629,0.78811 9.00236,4.52462c1.23577,3.73556 -0.78949,7.76675 -4.52414,9.00433c-0.57427,0.19031 -1.15257,0.38136 -1.73508,0.57322c-9.85523,3.24609 -20.22256,6.50982 -35.50099,11.18553c-1.82345,0.55804 -5.97735,1.82535 -11.33776,3.45953c-1.92556,0.58702 -3.88121,1.18309 -5.44851,1.6607c-0.9302,0.28345 -0.9302,0.28345 -1.49372,0.45512l-0.29315,0.08926l-0.02308,0.00701c-0.00183,0.00057 -0.00183,0.00057 -1.74011,-4.67705l0.26935,-0.10169l0.02106,-0.0065l0.08296,-0.02533l1.45885,4.78245c-7.84482,2.39301 -13.50507,4.13157 -19.01497,5.84167c-32.69583,10.14775 -56.98957,18.42981 -81.30427,27.79112c-68.05485,26.20154 -128.39709,58.58709 -189.20674,102.16525c-3.19899,2.29251 -7.64983,1.55686 -9.94052,-1.64321c-2.29007,-3.19923 -1.55385,-7.65008 1.6443,-9.94198c61.80433,-44.29099 123.2115,-77.24772 192.38733,-103.88085c24.63373,-9.48413 49.20611,-17.86191 82.2001,-28.1022c5.53416,-1.71763 11.21444,-3.46235 19.08121,-5.86205l0.00309,0.01015l-0.06056,0.00759z"/>
      <path fill="#FFAAB8" id="svg_14" d="m119.14279,351.71623c-3.7991,-1.02434 -6.04811,-4.93429 -5.02516,-8.7352c1.02451,-3.79945 4.93361,-6.05061 8.73255,-5.02728c105.38004,28.3864 202.20976,4.70619 292.84041,-73.47875c1.32458,-1.14287 2.62516,-2.27719 3.90444,-3.4054c2.95176,-2.60318 7.4541,-2.32004 10.05558,0.63277c2.60084,2.95209 2.31666,7.45446 -0.63437,10.05699c-1.31812,1.16247 -2.6575,2.33063 -4.02131,3.50735c-94.18622,81.25225 -195.87886,106.07256 -305.85214,76.44952z"/>
      <path fill="#FFAAB8" id="svg_15" d="m421.72876,271.48093c1.35008,-1.16488 2.67585,-2.32117 3.98031,-3.47158c0.88088,-0.77686 0.96572,-2.12105 0.18987,-3.00168c-0.77521,-0.8799 -2.1166,-0.96426 -2.99674,-0.18805c-1.29294,1.14025 -2.60714,2.28645 -3.94544,3.44116c-91.86478,79.24959 -190.3974,103.34625 -297.40708,74.52088c-1.13229,-0.30501 -2.29856,0.36662 -2.60416,1.49996c-0.30536,1.13458 0.36565,2.30128 1.49804,2.60678c108.34441,29.18418 208.33379,4.77953 301.2852,-75.40747z"/>
      <path fill="#FFAAB8" id="svg_16" d="m555.41739,201.66098c-2.05468,-3.35532 -1.00124,-7.74194 2.35301,-9.79849c49.77733,-30.51951 99.98898,-54.21882 157.86943,-74.90849c20.57171,-7.35346 41.13483,-14.04486 69.57869,-22.6887c2.72657,-0.82858 8.00051,-2.41997 15.11377,-4.56187l0.04946,-0.01489c6.21039,-1.87003 17.78195,-5.35009 17.17761,-5.16772c12.93641,-3.90376 22.06504,-6.7205 30.66894,-9.46893c3.74873,-1.1975 7.75731,0.87192 8.95299,4.62155c1.19539,3.74869 -0.87324,7.7578 -4.62103,8.95499c-8.68482,2.77429 -17.8787,5.61123 -30.88826,9.53706c0.59273,-0.17887 -10.97184,3.29909 -17.1674,5.16464l-0.04928,0.01484c-7.11066,2.14111 -12.38091,3.73138 -15.09761,4.55696c-28.22653,8.57779 -48.58971,15.20371 -68.92566,22.4729c-56.96729,20.36325 -106.2993,43.64558 -155.2177,73.63846c-3.35516,2.05711 -7.74172,1.00391 -9.79696,-2.35231z"/>
      <path fill="#FFAAB8" id="svg_17" d="m158.94249,401.6537c-3.90022,-0.52045 -6.63899,-4.10523 -6.11782,-8.00612c0.52112,-3.90057 4.10449,-6.64125 8.0044,-6.12084c75.61952,10.09066 146.57308,-7.84578 213.82554,-54.77908c3.22741,-2.2523 7.6687,-1.46101 9.91917,1.76749c2.24988,3.22763 1.45806,7.66893 -1.76849,9.92064c-70.16199,48.96377 -144.69196,67.78246 -223.8628,57.21791z"/>
      <path fill="#FFAAB8" id="svg_18" d="m827.05935,114.80069c3.77057,-1.12678 7.7395,1.01769 8.86449,4.78915c1.12471,3.77052 -1.0189,7.74003 -4.78854,8.86653c-3.54777,1.0602 -7.25306,2.16191 -12.47662,3.71007l-1.42081,-4.79388l0.01646,-0.00488c0.00187,-0.00056 0.00187,-0.00056 -0.01083,0.00325l1.42869,4.79149l-0.03723,0.01103l-0.25063,0.07423l-1.07715,0.31908c-1.60374,0.4751 -2.4246,0.71829 -3.70719,1.09831c-3.59541,1.06529 -6.36076,1.88489 -7.62658,2.26053c-10.82345,3.21197 -18.48169,5.51074 -25.99136,7.8045c-20.69216,6.32024 -37.87992,11.90873 -54.43095,17.72005c-43.21168,15.17231 -81.26681,31.69566 -118.38924,51.58483c-3.46901,1.85861 -7.7869,0.55208 -9.6436,-2.91798c-1.8562,-3.46911 -0.5497,-7.78712 2.91836,-9.64521c37.78628,-20.24485 76.50497,-37.05776 120.3979,-52.46926c16.74606,-5.87981 34.11285,-11.52673 54.98901,-17.90316c7.54957,-2.30595 15.24042,-4.61453 26.09994,-7.8372c1.26792,-0.37626 4.0348,-1.19633 7.6319,-2.26211c1.28305,-0.38015 2.10404,-0.62338 3.70797,-1.09854l1.07713,-0.31907l0.25071,-0.07426l0.04268,-0.01263c5.20394,-1.54236 8.89431,-2.63964 12.42549,-3.69487z"/>
      <path fill="#FFAAB8" id="svg_19" d="m238.41191,442.33168c-3.89434,0.56527 -7.50836,-2.13476 -8.07209,-6.02985c-0.56362,-3.8943 2.13514,-7.50937 6.02868,-8.07452c17.71394,-2.5712 35.15576,-6.84046 52.34174,-12.82227c3.71669,-1.29364 7.77724,0.67185 9.06904,4.38946c1.29146,3.71665 -0.67332,7.77765 -4.38905,9.07096c-18.04163,6.27962 -36.36625,10.76466 -54.97832,13.46622z"/>
      <path fill="#FFAAB8" id="svg_20" d="m661.2773,211.78612c-1.53953,-3.62086 0.14657,-7.80526 3.76646,-9.34668c23.05314,-9.81647 46.93517,-18.76492 73.45506,-27.57045c3.73487,-1.24011 7.76675,0.78353 9.00503,4.5193c1.23797,3.73483 -0.78491,7.76721 -4.51883,9.00701c-26.15602,8.68472 -49.67849,17.49794 -72.36282,27.15736c-3.62085,1.54183 -7.80496,-0.1447 -9.3449,-3.76654z"/>
     </g>
    </g>
    <g id="svg_21" fill-rule="nonzero" fill="#00AEBE" mask="url(#hero-blob-2)">
     <g id="Path">
      <path fill="#FFAAB8" id="svg_22" d="m1407.35206,749.40475l-0.24698,-0.05031c-43.38222,-8.83715 -84.41512,-18.72284 -123.42696,-29.70768c-4.27354,-1.20332 -6.76054,-5.64309 -5.55443,-9.91578c1.20576,-4.27146 5.64604,-6.75859 9.91834,-5.55561c42.68286,12.01851 87.83713,22.71485 135.9033,32.15478c4.65403,0.914 9.26016,1.88181 13.81848,2.90341l1.95327,0.43776l0,9.73343l-32.36502,0z"/>
      <path fill="#FFAAB8" id="svg_23" d="m1439.71708,720.27898l-2.96417,-0.56009c-64.85269,-12.25403 -124.48738,-27.12913 -180.20969,-44.84136c-4.23106,-1.34491 -6.56879,-5.86505 -5.2211,-10.09527c1.3473,-4.22899 5.86787,-6.56702 10.09771,-5.2225c54.5097,17.32679 112.84294,31.91586 176.26424,43.97499l2.03301,0.38656l0,16.35767z"/>
      <path fill="#FFAAB8" id="svg_24" d="m1439.71708,685.29052l-2.97363,-0.57375c-66.70737,-12.87077 -127.93102,-29.00903 -185.40785,-48.72349c-54.84537,-18.81188 -104.28231,-39.96645 -160.11264,-68.19852c-3.96171,-2.00334 -5.54705,-6.839 -3.54107,-10.79986c2.00544,-3.95979 6.8412,-5.54635 10.80185,-3.54354c55.18038,27.9034 103.95173,48.77444 158.07429,67.3384c56.16121,19.26321 115.97833,35.07649 181.13593,47.73808l2.02312,0.39313l0,16.36955z"/>
      <path fill="#FFAAB8" id="svg_25" d="m1439.71708,650.61313l-2.99154,-0.59988c-67.9913,-13.6341 -130.41143,-31.2291 -189.53558,-53.22768c-57.61186,-21.43589 -102.7048,-42.47868 -175.93935,-81.60201c-3.91568,-2.09183 -5.39193,-6.9619 -3.2975,-10.87673c2.09387,-3.91379 6.96402,-5.39139 10.87866,-3.30012c72.59671,38.78258 117.10974,59.55828 173.97082,80.71483c57.69603,21.46721 118.59678,38.68856 184.90983,52.09347l2.00466,0.40523l0,16.39289z"/>
      <path fill="#FFAAB8" id="svg_26" d="m1439.71708,616.08858l-3.0187,-0.64025c-63.5882,-13.48658 -122.54011,-30.98376 -179.03016,-52.93906c-34.08376,-13.24693 -67.02858,-27.98137 -102.44931,-45.72345c-13.59228,-6.80831 -27.47122,-14.01142 -43.80922,-22.72407c-6.00371,-3.20164 -12.16941,-6.51435 -20.4844,-11.00433c0.07144,0.03857 -6.98151,-3.77307 -10.38916,-5.61422l-0.00662,-0.00358c-4.45657,-2.40787 -7.69418,-4.15629 -9.30658,-5.02549c-3.90777,-2.10656 -5.36566,-6.98216 -3.25651,-10.88908c2.10859,-3.90588 6.98427,-5.36515 10.891,-3.25915c1.61618,0.87124 4.85513,2.62038 9.31234,5.0286l0.00665,0.00359c3.41452,1.84486 10.46916,5.65742 10.39342,5.61652c8.29055,4.47679 14.43376,7.77743 20.41061,10.96473c16.21908,8.64924 29.98092,15.79168 43.44448,22.53551c34.97792,17.52029 67.47018,32.05294 101.07358,45.11316c55.00237,21.3771 112.38214,38.46818 174.24177,51.70716l1.97681,0.42307l0,16.43034z"/>
      <path fill="#FFAAB8" id="svg_27" d="m1439.71708,581.54795l-3.0554,-0.69617c-58.36635,-13.29882 -113.12281,-30.46825 -166.21382,-51.93346c-35.28236,-14.26499 -69.29321,-30.13176 -107.82585,-50.178c-7.81521,-4.06579 -22.07479,-11.6995 -41.15278,-22.00335l-0.58757,-0.31736c-16.06317,-8.67676 -47.6934,-25.8473 -46.96453,-25.45808c-3.91603,-2.09117 -5.3931,-6.96098 -3.29933,-10.87617c2.09321,-3.91414 6.96312,-5.39256 10.8781,-3.30195c-0.65317,-0.3488 30.95206,16.808 46.9015,25.42371l0.58223,0.3145c19.07277,10.30151 33.31202,17.92488 41.06804,21.95987c38.08556,19.81366 71.64394,35.47033 106.43256,49.5357c51.55141,20.84274 104.69403,37.57219 161.29757,50.59964l1.93928,0.44633l0,16.48479z"/>
      <path fill="#FFAAB8" id="svg_28" d="m1439.71708,546.81021l-3.10158,-0.76892c-51.26452,-12.70911 -100.05091,-28.7981 -147.83393,-48.60608c-36.20852,-15.00989 -70.95105,-31.66629 -112.18071,-53.63415c-6.38555,-3.40233 -14.0942,-7.60586 -46.27195,-25.19655l-0.08412,-0.04599c-27.22789,-14.8847 -39.97972,-21.82339 -46.46753,-25.24495c-3.92678,-2.07092 -5.429,-6.93304 -3.35547,-10.85898c2.07297,-3.92489 6.93518,-5.42842 10.86092,-3.35805c6.56094,3.46012 19.40001,10.44577 46.50128,25.26109l0.09071,0.04959c32.58009,17.81045 39.96785,21.83921 46.29184,25.20874c40.7797,21.72811 75.07273,38.17032 110.77774,52.97148c46.21576,19.15829 93.37441,34.77924 142.88065,47.18876l1.89215,0.4743l0,16.55971z"/>
      <path fill="#FFAAB8" id="svg_29" d="m1160.56544,392.12337l0.01893,0.0107l-0.01651,-0.00919l-0.31918,-0.17751c-0.61657,-0.34279 -0.61657,-0.34279 -1.6343,-0.90852c-1.71493,-0.95326 -3.85393,-2.14209 -5.95989,-3.31238c-5.86135,-3.25717 -10.40377,-5.78017 -12.39562,-6.88425c-16.63187,-9.21907 -27.97604,-15.38914 -38.85284,-21.1202c-0.64095,-0.33773 -1.27766,-0.67249 -1.91037,-1.00441c-3.93129,-2.06237 -5.44409,-6.9212 -3.37911,-10.85164c2.06442,-3.92939 6.92335,-5.4435 10.85359,-3.38168c0.64129,0.33642 1.28656,0.67568 1.93605,1.0179c10.98927,5.79033 22.42039,12.00755 39.15253,21.2822c1.99707,1.10697 6.54353,3.63221 12.40936,6.89188c2.10717,1.17096 4.24715,2.36032 5.96209,3.31359c1.01781,0.56578 1.01781,0.56578 1.63434,0.90855l0.32052,0.17825l0.02441,0.0136c0.00182,0.001 14.69298,8.14612 20.74952,11.472c35.94384,19.73814 63.29264,33.78806 91.58952,46.95866c52.0273,24.21576 103.28552,43.21558 157.13076,58.00564l1.83784,0.50481l0,16.65545l-3.1548,-0.85619c-55.80194,-15.14431 -108.82682,-34.70766 -162.60388,-59.73783c-28.64611,-13.33314 -56.29008,-27.53379 -92.54359,-47.44198c-6.08161,-3.33965 -12.30822,-6.78273 -20.91759,-11.56511l0.00666,-0.01198l0.06156,0.04964z"/>
      <path fill="#FFAAB8" id="svg_30" d="m1439.71708,476.01552l-3.2165,-0.96221c-54.22794,-16.22214 -105.84064,-36.8667 -160.24217,-63.80843c-23.43569,-11.60626 -46.29537,-23.75607 -77.3919,-41.07266c-2.98645,-1.66305 -8.75879,-4.89235 -16.54006,-9.25145l-0.03477,-0.01948c-6.77023,-3.79272 -19.37385,-10.85895 -18.71666,-10.4913c-14.12427,-7.90138 -24.14523,-13.4258 -33.67135,-18.5551c-3.90879,-2.10467 -5.36904,-6.97956 -3.26178,-10.8875c2.1067,-3.90691 6.98167,-5.36853 10.88942,-3.26442c9.61036,5.17466 19.69856,10.73607 33.8984,18.67973c-0.64503,-0.36084 11.95068,6.70094 18.70509,10.48481l0.03465,0.01941c7.77913,4.35791 13.5478,7.58518 16.52443,9.24276c30.87186,17.19148 53.52243,29.23069 76.70533,40.71176c52.54666,26.02312 102.36317,46.04804 154.54279,61.85776l1.77508,0.53783l0,16.77849z"/>
      <path fill="#FFAAB8" id="svg_31" d="m1181.74394,317.0411c-3.86849,-2.17778 -5.23679,-7.07928 -3.05645,-10.94694c2.17977,-3.86665 7.08134,-5.23642 10.94882,-3.05921c3.86363,2.17504 7.8941,4.45132 13.57191,7.66454l0.29811,0.16879l1.17075,0.66277c1.21392,0.6872 2.63534,1.49182 4.02945,2.28094c3.90808,2.21211 6.9141,3.91328 8.29058,4.69163c11.76992,6.65547 20.12067,11.34308 28.34372,15.90695c22.65989,12.57644 41.77492,22.74186 60.55276,32.17342c45.3724,22.78923 88.00738,40.78072 132.11842,55.57477l1.70507,0.57184l0,16.93319l-3.28555,-1.08745c-46.11961,-15.2647 -90.52121,-33.90278 -137.75973,-57.62931c-18.98596,-9.53609 -38.28838,-19.80087 -61.13843,-32.48285c-8.26414,-4.58667 -16.64826,-9.29301 -28.45528,-15.96946c-1.37859,-0.77953 -4.38623,-2.48162 -8.296,-4.69469c-1.39459,-0.78938 -2.81642,-1.59424 -4.03026,-2.28138l-1.1707,-0.66275l-0.27245,-0.15426l-0.04619,-0.02615l-0.00318,-0.00181c-5.65414,-3.1998 -9.66904,-5.46728 -13.51537,-7.63258z"/>
      <path fill="#FFAAB8" id="svg_32" d="m1402.45882,379.4671c-1.73343,4.08607 -6.45109,5.9954 -10.53803,4.26469c-27.61541,-11.6944 -55.17379,-24.82466 -84.80398,-40.34645c-3.93251,-2.06005 -5.44818,-6.91799 -3.38552,-10.84965c2.06211,-3.93061 6.92014,-5.44758 10.85159,-3.38808c29.2467,15.3209 56.4139,28.2654 83.61326,39.78361c4.0881,1.7312 5.9966,6.44865 4.26268,10.53588z"/>
     </g>
    </g>
   </g>
  </g>
 </g>
</svg>